<svg xmlns="http://www.w3.org/2000/svg" width="1280" height="640" viewBox="0 0 1280 640" fill="none" role="img" aria-labelledby="title desc">
  <title id="title">MatterLights banner</title>
  <desc id="desc">Stylized banner showing a glowing monitor, ambient light bulbs, and the MatterLights name.</desc>
  <defs>
    <linearGradient id="bg" x1="80" y1="70" x2="1180" y2="560" gradientUnits="userSpaceOnUse">
      <stop stop-color="#07111F" />
      <stop offset="0.5" stop-color="#101C30" />
      <stop offset="1" stop-color="#291616" />
    </linearGradient>
    <linearGradient id="screenGlow" x1="360" y1="170" x2="862" y2="470" gradientUnits="userSpaceOnUse">
      <stop stop-color="#6EE7F9" />
      <stop offset="0.52" stop-color="#B794F4" />
      <stop offset="1" stop-color="#F59E0B" />
    </linearGradient>
    <radialGradient id="ambientA" cx="0" cy="0" r="1" gradientUnits="userSpaceOnUse" gradientTransform="translate(231 172) rotate(24.8) scale(213 193)">
      <stop stop-color="#7DD3FC" stop-opacity="0.65" />
      <stop offset="1" stop-color="#7DD3FC" stop-opacity="0" />
    </radialGradient>
    <radialGradient id="ambientB" cx="0" cy="0" r="1" gradientUnits="userSpaceOnUse" gradientTransform="translate(1034 480) rotate(147.8) scale(257 209)">
      <stop stop-color="#F59E0B" stop-opacity="0.5" />
      <stop offset="1" stop-color="#F59E0B" stop-opacity="0" />
    </radialGradient>
    <filter id="blur24" x="0" y="0" width="1280" height="640" filterUnits="userSpaceOnUse" color-interpolation-filters="sRGB">
      <feGaussianBlur stdDeviation="24" />
    </filter>
  </defs>

  <rect width="1280" height="640" rx="28" fill="url(#bg)" />
  <g opacity="0.9" filter="url(#blur24)">
    <circle cx="216" cy="176" r="140" fill="url(#ambientA)" />
    <circle cx="1062" cy="476" r="160" fill="url(#ambientB)" />
  </g>

  <g>
    <rect x="114" y="72" width="1052" height="496" rx="28" stroke="rgba(255,255,255,0.12)" stroke-width="2" />
    <rect x="164" y="132" width="544" height="332" rx="28" fill="#0A1220" stroke="rgba(255,255,255,0.12)" stroke-width="2" />
    <rect x="184" y="152" width="504" height="292" rx="20" fill="url(#screenGlow)" />
    <rect x="378" y="474" width="118" height="18" rx="9" fill="#243041" />
    <rect x="332" y="494" width="210" height="20" rx="10" fill="#141C28" />
  </g>

  <g fill="#E2F1FF">
    <circle cx="825" cy="174" r="18" />
    <circle cx="875" cy="174" r="18" fill="#C7A4FF" />
    <circle cx="925" cy="174" r="18" fill="#FFD089" />
  </g>

  <g>
    <circle cx="872" cy="304" r="58" fill="#0B1220" stroke="rgba(255,255,255,0.14)" stroke-width="2" />
    <circle cx="872" cy="304" r="26" fill="#7DD3FC" />
    <rect x="860" y="338" width="24" height="34" rx="10" fill="#D7E7FF" />
    <path d="M838 301C838 279.46 855.46 262 877 262C898.54 262 916 279.46 916 301C916 322.54 898.54 340 877 340H867C851.536 340 838 326.464 838 311V301Z" fill="rgba(125,211,252,0.14)" />

    <circle cx="998" cy="382" r="58" fill="#0B1220" stroke="rgba(255,255,255,0.14)" stroke-width="2" />
    <circle cx="998" cy="382" r="26" fill="#F59E0B" />
    <rect x="986" y="416" width="24" height="34" rx="10" fill="#FFE3B1" />
    <path d="M964 379C964 357.46 981.46 340 1003 340C1024.54 340 1042 357.46 1042 379C1042 400.54 1024.54 418 1003 418H993C977.536 418 964 404.464 964 389V379Z" fill="rgba(245,158,11,0.16)" />
  </g>

  <g>
    <text x="760" y="284" fill="#F5FAFF" font-size="72" font-family="Segoe UI, Arial, sans-serif" font-weight="700">MatterLights</text>
    <text x="760" y="336" fill="#93A6BF" font-size="26" font-family="Segoe UI, Arial, sans-serif">Windows screen sync for Home Assistant ambient lighting</text>
    <text x="760" y="430" fill="#D6E5F8" font-size="22" font-family="Segoe UI, Arial, sans-serif">Dashboard. Zone designer. Background startup. Tuned for vivid room ambience.</text>
  </g>
</svg>